<svg width="1891" height="256" viewBox="0 0 1891 256" fill="none" xmlns="http://www.w3.org/2000/svg">
<path d="M0.491389 197V0.636358H47.9523V79.4503H125.328V0.636358H172.693V197H125.328V118.09H47.9523V197H0.491389ZM243.98 199.493C234.584 199.493 226.242 197.927 218.956 194.795C211.733 191.599 206.012 186.805 201.793 180.413C197.638 173.957 195.561 165.871 195.561 156.155C195.561 147.973 196.999 141.07 199.875 135.445C202.752 129.82 206.715 125.249 211.764 121.734C216.814 118.218 222.631 115.565 229.215 113.776C235.799 111.922 242.83 110.675 250.309 110.036C258.682 109.269 265.426 108.47 270.539 107.639C275.653 106.744 279.36 105.498 281.661 103.9C284.027 102.238 285.209 99.9048 285.209 96.9006V96.4212C285.209 91.4993 283.515 87.696 280.127 85.0114C276.74 82.3267 272.169 80.9844 266.416 80.9844C260.216 80.9844 255.23 82.3267 251.459 85.0114C247.688 87.696 245.291 91.4034 244.268 96.1335L201.026 94.5994C202.304 85.6506 205.596 77.6605 210.902 70.6293C216.271 63.5341 223.622 57.973 232.954 53.946C242.35 49.8551 253.632 47.8097 266.8 47.8097C276.196 47.8097 284.858 48.9283 292.784 51.1655C300.71 53.3388 307.613 56.5348 313.494 60.7535C319.375 64.9084 323.913 70.022 327.109 76.0945C330.369 82.1669 331.999 89.1023 331.999 96.9006V197H287.894V176.482H286.743C284.122 181.467 280.767 185.686 276.676 189.138C272.649 192.589 267.887 195.178 262.389 196.904C256.956 198.63 250.82 199.493 243.98 199.493ZM258.458 168.811C263.508 168.811 268.046 167.788 272.073 165.743C276.164 163.697 279.424 160.885 281.853 157.305C284.282 153.662 285.497 149.443 285.497 144.649V130.651C284.154 131.354 282.524 131.993 280.607 132.568C278.753 133.143 276.708 133.687 274.47 134.198C272.233 134.71 269.932 135.157 267.567 135.54C265.202 135.924 262.933 136.276 260.76 136.595C256.349 137.298 252.578 138.385 249.446 139.855C246.377 141.325 244.012 143.243 242.35 145.608C240.752 147.909 239.953 150.658 239.953 153.854C239.953 158.712 241.679 162.419 245.131 164.976C248.647 167.533 253.089 168.811 258.458 168.811ZM360.667 197V49.7273H406.21V76.5739H407.745C410.429 66.858 414.808 59.6349 420.88 54.9048C426.953 50.1108 434.016 47.7138 442.07 47.7138C444.243 47.7138 446.48 47.8736 448.782 48.1932C451.083 48.4489 453.224 48.8643 455.206 49.4396V90.1889C452.968 89.4219 450.028 88.8146 446.385 88.3672C442.805 87.9197 439.609 87.696 436.796 87.696C431.235 87.696 426.218 88.9425 421.743 91.4354C417.333 93.8643 413.849 97.2841 411.292 101.695C408.799 106.041 407.553 111.155 407.553 117.036V197H360.667ZM474.31 197V49.7273H518.894V76.7656H520.524C523.592 67.8168 528.77 60.7535 536.057 55.576C543.344 50.3984 552.037 47.8097 562.136 47.8097C572.364 47.8097 581.121 50.4304 588.408 55.6719C595.695 60.9134 600.329 67.9446 602.31 76.7656H603.845C606.593 68.0085 611.962 61.0092 619.953 55.7678C627.943 50.4624 637.371 47.8097 648.237 47.8097C662.172 47.8097 673.486 52.2841 682.179 61.2329C690.872 70.1179 695.219 82.3267 695.219 97.8594V197H648.333V108.598C648.333 101.247 646.448 95.6541 642.676 91.8189C638.905 87.9197 634.015 85.9702 628.006 85.9702C621.551 85.9702 616.469 88.0795 612.761 92.2983C609.118 96.4531 607.296 102.046 607.296 109.077V197H562.232V108.119C562.232 101.279 560.379 95.8778 556.671 91.9148C552.964 87.9517 548.074 85.9702 542.002 85.9702C537.911 85.9702 534.299 86.9609 531.167 88.9425C528.035 90.8601 525.574 93.6087 523.784 97.1882C522.058 100.768 521.195 104.987 521.195 109.844V197H474.31ZM793.017 199.781C777.548 199.781 764.253 196.616 753.131 190.288C742.073 183.896 733.539 175.011 727.531 163.634C721.586 152.192 718.614 138.928 718.614 123.843C718.614 108.694 721.586 95.4304 727.531 84.0526C733.539 72.6108 742.073 63.7258 753.131 57.3977C764.253 51.0057 777.548 47.8097 793.017 47.8097C808.486 47.8097 821.749 51.0057 832.808 57.3977C843.93 63.7258 852.463 72.6108 858.408 84.0526C864.416 95.4304 867.421 108.694 867.421 123.843C867.421 138.928 864.416 152.192 858.408 163.634C852.463 175.011 843.93 183.896 832.808 190.288C821.749 196.616 808.486 199.781 793.017 199.781ZM793.305 164.401C798.93 164.401 803.692 162.675 807.591 159.223C811.49 155.771 814.462 150.977 816.508 144.841C818.617 138.705 819.672 131.609 819.672 123.555C819.672 115.374 818.617 108.214 816.508 102.078C814.462 95.9418 811.49 91.1477 807.591 87.696C803.692 84.2443 798.93 82.5185 793.305 82.5185C787.488 82.5185 782.566 84.2443 778.539 87.696C774.576 91.1477 771.54 95.9418 769.43 102.078C767.385 108.214 766.362 115.374 766.362 123.555C766.362 131.609 767.385 138.705 769.43 144.841C771.54 150.977 774.576 155.771 778.539 159.223C782.566 162.675 787.488 164.401 793.305 164.401ZM938.324 113.009V197H891.439V49.7273H936.023V76.7656H937.653C940.913 67.7528 946.474 60.6896 954.336 55.576C962.199 50.3984 971.563 47.8097 982.429 47.8097C992.785 47.8097 1001.77 50.1428 1009.37 54.8089C1017.04 59.4112 1022.99 65.8672 1027.21 74.1768C1031.49 82.4226 1033.6 92.0746 1033.53 103.133V197H986.648V112.337C986.712 104.156 984.635 97.7635 980.416 93.1612C976.261 88.5589 970.476 86.2578 963.062 86.2578C958.14 86.2578 953.793 87.3445 950.022 89.5178C946.314 91.6271 943.438 94.6633 941.392 98.6264C939.411 102.589 938.388 107.384 938.324 113.009ZM1131.31 199.781C1115.84 199.781 1102.54 196.616 1091.42 190.288C1080.36 183.896 1071.83 175.011 1065.82 163.634C1059.88 152.192 1056.9 138.928 1056.9 123.843C1056.9 108.694 1059.88 95.4304 1065.82 84.0526C1071.83 72.6108 1080.36 63.7258 1091.42 57.3977C1102.54 51.0057 1115.84 47.8097 1131.31 47.8097C1146.78 47.8097 1160.04 51.0057 1171.1 57.3977C1182.22 63.7258 1190.75 72.6108 1196.7 84.0526C1202.71 95.4304 1205.71 108.694 1205.71 123.843C1205.71 138.928 1202.71 152.192 1196.7 163.634C1190.75 175.011 1182.22 183.896 1171.1 190.288C1160.04 196.616 1146.78 199.781 1131.31 199.781ZM1131.6 164.401C1137.22 164.401 1141.98 162.675 1145.88 159.223C1149.78 155.771 1152.75 150.977 1154.8 144.841C1156.91 138.705 1157.96 131.609 1157.96 123.555C1157.96 115.374 1156.91 108.214 1154.8 102.078C1152.75 95.9418 1149.78 91.1477 1145.88 87.696C1141.98 84.2443 1137.22 82.5185 1131.6 82.5185C1125.78 82.5185 1120.86 84.2443 1116.83 87.696C1112.87 91.1477 1109.83 95.9418 1107.72 102.078C1105.68 108.214 1104.65 115.374 1104.65 123.555C1104.65 131.609 1105.68 138.705 1107.72 144.841C1109.83 150.977 1112.87 155.771 1116.83 159.223C1120.86 162.675 1125.78 164.401 1131.6 164.401ZM1298.38 255.295C1284.38 255.295 1272.4 253.346 1262.42 249.447C1252.45 245.548 1244.62 240.21 1238.93 233.435C1233.25 226.659 1229.83 218.989 1228.67 210.423L1273.07 207.93C1273.9 210.935 1275.43 213.555 1277.67 215.793C1279.97 218.03 1282.94 219.756 1286.59 220.97C1290.29 222.185 1294.64 222.792 1299.63 222.792C1307.49 222.792 1313.98 220.874 1319.09 217.039C1324.27 213.268 1326.86 206.652 1326.86 197.192V171.304H1325.23C1323.37 175.842 1320.56 179.901 1316.79 183.481C1313.02 187.06 1308.32 189.873 1302.69 191.918C1297.13 193.964 1290.74 194.987 1283.52 194.987C1272.78 194.987 1262.94 192.494 1253.99 187.508C1245.1 182.458 1237.98 174.66 1232.61 164.113C1227.3 153.502 1224.65 139.855 1224.65 123.172C1224.65 105.977 1227.4 91.8189 1232.89 80.6967C1238.39 69.5106 1245.58 61.2329 1254.47 55.8636C1263.42 50.4943 1273.04 47.8097 1283.33 47.8097C1291.06 47.8097 1297.68 49.152 1303.17 51.8366C1308.74 54.4574 1313.31 57.8452 1316.89 62C1320.46 66.1548 1323.18 70.4695 1325.04 74.9439H1326.38V49.7273H1373.07V197.575C1373.07 210.04 1369.94 220.555 1363.67 229.12C1357.41 237.685 1348.65 244.173 1337.4 248.584C1326.15 253.058 1313.15 255.295 1298.38 255.295ZM1299.82 160.853C1305.51 160.853 1310.37 159.351 1314.39 156.347C1318.42 153.342 1321.52 149.028 1323.69 143.403C1325.87 137.778 1326.95 131.034 1326.95 123.172C1326.95 115.182 1325.87 108.31 1323.69 102.558C1321.58 96.7408 1318.48 92.2663 1314.39 89.1342C1310.37 86.0021 1305.51 84.4361 1299.82 84.4361C1294 84.4361 1289.08 86.0341 1285.05 89.2301C1281.03 92.4261 1277.96 96.9325 1275.85 102.749C1273.8 108.502 1272.78 115.31 1272.78 123.172C1272.78 131.034 1273.83 137.778 1275.94 143.403C1278.05 149.028 1281.09 153.342 1285.05 156.347C1289.08 159.351 1294 160.853 1299.82 160.853ZM1402.96 197V49.7273H1448.51V76.5739H1450.04C1452.72 66.858 1457.1 59.6349 1463.18 54.9048C1469.25 50.1108 1476.31 47.7138 1484.36 47.7138C1486.54 47.7138 1488.78 47.8736 1491.08 48.1932C1493.38 48.4489 1495.52 48.8643 1497.5 49.4396V90.1889C1495.26 89.4219 1492.32 88.8146 1488.68 88.3672C1485.1 87.9197 1481.9 87.696 1479.09 87.696C1473.53 87.696 1468.51 88.9425 1464.04 91.4354C1459.63 93.8643 1456.14 97.2841 1453.59 101.695C1451.09 106.041 1449.85 111.155 1449.85 117.036V197H1402.96ZM1552.58 199.493C1543.19 199.493 1534.85 197.927 1527.56 194.795C1520.34 191.599 1514.62 186.805 1510.4 180.413C1506.24 173.957 1504.16 165.871 1504.16 156.155C1504.16 147.973 1505.6 141.07 1508.48 135.445C1511.36 129.82 1515.32 125.249 1520.37 121.734C1525.42 118.218 1531.23 115.565 1537.82 113.776C1544.4 111.922 1551.43 110.675 1558.91 110.036C1567.29 109.269 1574.03 108.47 1579.14 107.639C1584.26 106.744 1587.96 105.498 1590.27 103.9C1592.63 102.238 1593.81 99.9048 1593.81 96.9006V96.4212C1593.81 91.4993 1592.12 87.696 1588.73 85.0114C1585.34 82.3267 1580.77 80.9844 1575.02 80.9844C1568.82 80.9844 1563.83 82.3267 1560.06 85.0114C1556.29 87.696 1553.89 91.4034 1552.87 96.1335L1509.63 94.5994C1510.91 85.6506 1514.2 77.6605 1519.51 70.6293C1524.87 63.5341 1532.23 57.973 1541.56 53.946C1550.95 49.8551 1562.24 47.8097 1575.4 47.8097C1584.8 47.8097 1593.46 48.9283 1601.39 51.1655C1609.31 53.3388 1616.22 56.5348 1622.1 60.7535C1627.98 64.9084 1632.52 70.022 1635.71 76.0945C1638.97 82.1669 1640.6 89.1023 1640.6 96.9006V197H1596.5V176.482H1595.35C1592.73 181.467 1589.37 185.686 1585.28 189.138C1581.25 192.589 1576.49 195.178 1570.99 196.904C1565.56 198.63 1559.42 199.493 1552.58 199.493ZM1567.06 168.811C1572.11 168.811 1576.65 167.788 1580.68 165.743C1584.77 163.697 1588.03 160.885 1590.46 157.305C1592.89 153.662 1594.1 149.443 1594.1 144.649V130.651C1592.76 131.354 1591.13 131.993 1589.21 132.568C1587.36 133.143 1585.31 133.687 1583.07 134.198C1580.84 134.71 1578.54 135.157 1576.17 135.54C1573.81 135.924 1571.54 136.276 1569.36 136.595C1564.95 137.298 1561.18 138.385 1558.05 139.855C1554.98 141.325 1552.62 143.243 1550.95 145.608C1549.36 147.909 1548.56 150.658 1548.56 153.854C1548.56 158.712 1550.28 162.419 1553.73 164.976C1557.25 167.533 1561.69 168.811 1567.06 168.811ZM1669.27 197V49.7273H1713.86V76.7656H1715.49C1718.55 67.8168 1723.73 60.7535 1731.02 55.576C1738.3 50.3984 1747 47.8097 1757.1 47.8097C1767.32 47.8097 1776.08 50.4304 1783.37 55.6719C1790.66 60.9134 1795.29 67.9446 1797.27 76.7656H1798.81C1801.55 68.0085 1806.92 61.0092 1814.91 55.7678C1822.9 50.4624 1832.33 47.8097 1843.2 47.8097C1857.13 47.8097 1868.45 52.2841 1877.14 61.2329C1885.83 70.1179 1890.18 82.3267 1890.18 97.8594V197H1843.29V108.598C1843.29 101.247 1841.41 95.6541 1837.64 91.8189C1833.87 87.9197 1828.98 85.9702 1822.97 85.9702C1816.51 85.9702 1811.43 88.0795 1807.72 92.2983C1804.08 96.4531 1802.26 102.046 1802.26 109.077V197H1757.19V108.119C1757.19 101.279 1755.34 95.8778 1751.63 91.9148C1747.92 87.9517 1743.03 85.9702 1736.96 85.9702C1732.87 85.9702 1729.26 86.9609 1726.13 88.9425C1723 90.8601 1720.53 93.6087 1718.75 97.1882C1717.02 100.768 1716.16 104.987 1716.16 109.844V197H1669.27Z" fill="#597BF4" fill-opacity="0.24"/>
</svg>
