<?xml version="1.0" standalone="no"?><svg xmlns="http://www.w3.org/2000/svg" viewBox="0 0 1440 320"><path fill="#2676bd" fill-opacity="0.75" d="M0,96L16,106.7C32,117,64,139,96,149.3C128,160,160,160,192,170.7C224,181,256,203,288,224C320,245,352,267,384,250.7C416,235,448,181,480,149.3C512,117,544,107,576,138.7C608,171,640,245,672,234.7C704,224,736,128,768,85.3C800,43,832,53,864,69.3C896,85,928,107,960,144C992,181,1024,235,1056,234.7C1088,235,1120,181,1152,176C1184,171,1216,213,1248,229.3C1280,245,1312,235,1344,197.3C1376,160,1408,96,1424,64L1440,32L1440,320L1424,320C1408,320,1376,320,1344,320C1312,320,1280,320,1248,320C1216,320,1184,320,1152,320C1120,320,1088,320,1056,320C1024,320,992,320,960,320C928,320,896,320,864,320C832,320,800,320,768,320C736,320,704,320,672,320C640,320,608,320,576,320C544,320,512,320,480,320C448,320,416,320,384,320C352,320,320,320,288,320C256,320,224,320,192,320C160,320,128,320,96,320C64,320,32,320,16,320L0,320Z"></path></svg>